<?xml version="1.0" encoding="UTF-8"?>
<svg id="Layer_2" data-name="Layer 2" xmlns="http://www.w3.org/2000/svg" viewBox="0 0 361.57 116.51">
  <defs>
    <style>.cls-1{fill:#fff;fill-rule:evenodd;stroke-width:0}</style>
  </defs>
  <g id="UI">
    <g id="logos">
      <path class="cls-1" d="m111.98,35.96h0c-2.96-7.11-7.26-13.54-12.63-18.91-5.36-5.36-11.78-9.67-18.88-12.64-6.86-2.85-14.37-4.41-22.26-4.41s-15.41,1.56-22.29,4.41c-7.1,2.97-13.49,7.27-18.86,12.64-5.36,5.37-9.68,11.8-12.63,18.91C1.58,42.81,0,50.33,0,58.23h9.6c0-6.6,1.34-12.86,3.71-18.6,2.48-5.94,6.07-11.3,10.56-15.77,4.46-4.46,9.82-8.09,15.75-10.57,5.72-2.37,12.01-3.71,18.59-3.71s12.84,1.34,18.58,3.71c5.93,2.48,11.3,6.1,15.75,10.57,4.46,4.46,8.08,9.83,10.57,15.77,2.37,5.74,3.7,12.01,3.7,18.6s-1.33,12.88-3.7,18.62c-2.48,5.94-6.1,11.28-10.57,15.74-4.45,4.5-9.82,8.09-15.75,10.57-5.71,2.39-12.01,3.7-18.58,3.7s-12.88-1.31-18.62-3.7l-3.67,8.87c6.86,2.86,14.4,4.46,22.29,4.46,7.88-.03,15.4-1.6,22.26-4.46,7.13-2.94,13.53-7.27,18.88-12.64,5.36-5.36,9.67-11.76,12.63-18.87,2.86-6.89,4.44-14.41,4.44-22.3s-1.58-15.42-4.44-22.27Z"></path>
      <path class="cls-1" d="m58.22,97.01h0c5.26,0,10.26-1.06,14.84-2.96,4.73-1.96,9.01-4.85,12.57-8.42,3.59-3.56,6.45-7.84,8.44-12.57,1.9-4.57,2.93-9.61,2.93-14.87s-1.03-10.26-2.93-14.83c-1.99-4.74-4.85-9.01-8.44-12.58-3.56-3.59-7.84-6.44-12.57-8.43-4.58-1.91-9.58-2.94-14.84-2.94v9.61c3.95,0,7.73.78,11.16,2.23,3.56,1.47,6.78,3.65,9.48,6.32,2.66,2.69,4.84,5.9,6.32,9.47,1.44,3.43,2.23,7.22,2.23,11.16s-.79,7.73-2.23,11.16c-1.48,3.57-3.65,6.78-6.32,9.48-2.7,2.69-5.91,4.84-9.48,6.35-3.43,1.41-7.21,2.2-11.16,2.2s-7.73-.79-11.19-2.2c-3.54-1.5-6.75-3.65-9.45-6.35-2.69-2.7-4.84-5.9-6.34-9.48-1.42-3.43-2.21-7.21-2.21-11.16s.78-7.73,2.21-11.16l-8.87-3.67c-1.91,4.57-2.97,9.58-2.97,14.83s1.06,10.3,2.97,14.87c1.95,4.73,4.84,9.01,8.41,12.57,3.56,3.56,7.84,6.45,12.58,8.42,4.57,1.9,9.6,2.96,14.86,2.96Z"></path>
      <path class="cls-1" d="m65.11,65.14h0c-.9.9-1.96,1.61-3.17,2.11l3.68,8.91c2.38-.98,4.5-2.42,6.3-4.22,1.79-1.77,3.21-3.9,4.19-6.27.95-2.29,1.49-4.8,1.49-7.44s-.54-5.13-1.49-7.42c-.98-2.38-2.4-4.5-4.19-6.3-1.8-1.8-3.92-3.21-6.3-4.19-2.29-.96-4.8-1.5-7.41-1.5s-5.16.54-7.44,1.5c-2.34.98-4.5,2.39-6.26,4.19-1.8,1.8-3.25,3.92-4.23,6.3-.95,2.29-1.47,4.8-1.47,7.42s.51,5.16,1.47,7.44c.98,2.38,2.43,4.5,4.23,6.27,1.76,1.8,3.9,3.24,6.26,4.22l3.71-8.91c-1.2-.49-2.29-1.21-3.19-2.11-.9-.9-1.61-1.99-2.11-3.19-.49-1.14-.76-2.4-.76-3.74s.27-2.59.76-3.73c.5-1.2,1.21-2.27,2.11-3.17.89-.9,1.99-1.63,3.19-2.12,1.14-.49,2.39-.74,3.73-.74s2.58.25,3.73.74c1.21.5,2.27,1.22,3.17,2.12s1.63,1.97,2.12,3.17c.49,1.14.74,2.43.74,3.73s-.25,2.59-.74,3.74c-.5,1.2-1.22,2.29-2.12,3.19Z"></path>
      <path class="cls-1" d="m154.57,17.42h0c0-1.66-1.25-2.89-2.88-2.89h-3.27c-1.6,0-2.88,1.29-2.88,2.89v13.09c0,1.55,1.31,2.85,2.88,2.85h3.27c1.6,0,2.88-1.31,2.88-2.85v-2.26h4.91v2.26c0,4.29-3.5,7.84-7.79,7.84h-3.27c-4.27,0-7.79-3.6-7.79-7.84v-13.09c0-4.33,3.53-7.81,7.79-7.81h3.27c4.35,0,7.79,3.46,7.79,7.81v2.26h-4.91v-2.26Z"></path>
      <path class="cls-1" d="m179.95,17.42h0c0-1.66-1.22-2.89-2.86-2.89h-3.29c-1.6,0-2.85,1.29-2.85,2.89v13.09c0,1.55,1.31,2.85,2.85,2.85h3.29c1.61,0,2.86-1.31,2.86-2.85v-2.26h4.92v2.26c0,4.29-3.48,7.84-7.78,7.84h-3.29c-4.27,0-7.78-3.6-7.78-7.84v-13.09c0-4.33,3.51-7.81,7.78-7.81h3.29c4.36,0,7.78,3.46,7.78,7.81v2.26h-4.92v-2.26Z"></path>
      <path class="cls-1" d="m210.35,17.42h0v13.09c0,4.24-3.48,7.84-7.8,7.84h-11.06V9.61h11.06c4.32,0,7.8,3.48,7.8,7.81Zm-4.92,0h0c0-1.6-1.22-2.89-2.88-2.89h-6.14v18.84h6.14c1.6,0,2.88-1.31,2.88-2.85v-13.09Z"></path>
      <path class="cls-1" d="m230.88,17.42h0c0-1.66-1.25-2.89-2.89-2.89h-3.28c-1.61,0-2.9,1.29-2.9,2.89v13.09c0,1.55,1.31,2.85,2.9,2.85h3.28c1.61,0,2.89-1.31,2.89-2.85v-2.26h4.94v2.26c0,4.29-3.52,7.84-7.83,7.84h-3.28c-4.29,0-7.84-3.6-7.84-7.84v-13.09c0-4.33,3.55-7.81,7.84-7.81h3.28c4.36,0,7.83,3.46,7.83,7.81v2.26h-4.94v-2.26Z"></path>
      <path class="cls-1" d="m250.14,38.36h0c-4.28,0-7.78-3.6-7.78-7.84v-13.09c0-4.33,3.51-7.81,7.78-7.81h3.29c4.36,0,7.78,3.46,7.78,7.81v13.09c0,4.29-3.48,7.84-7.78,7.84h-3.29Zm6.15-7.84h0v-13.09c0-1.66-1.22-2.89-2.86-2.89h-3.29c-1.61,0-2.86,1.29-2.86,2.89v13.09c0,1.55,1.31,2.85,2.86,2.85h3.29c1.61,0,2.86-1.31,2.86-2.85Z"></path>
      <polygon class="cls-1" points="272.68 14.54 272.68 14.54 272.68 20.83 285.05 20.83 285.05 25.75 272.68 25.75 272.68 33.43 286.69 33.43 286.69 38.36 267.73 38.36 267.73 25.75 267.73 14.54 267.73 9.61 286.69 9.61 286.69 14.54 272.68 14.54"></polygon>
      <path class="cls-1" d="m141.17,47.96h1.85l5.07,8.69c.11.19.27.52.43.93.19.41.3.68.35.82l.05-.03-.03-1.67v-8.75h1.88v14.42h-1.8l-5.11-8.8c-.11-.22-.28-.51-.47-.93-.16-.4-.3-.68-.35-.82l-.08.03c.03.13.03.36.05.71.03.32.03.66.03.98v8.83h-1.88v-14.42Z"></path>
      <path class="cls-1" d="m157,47.96h2.61l4.59,14.42h-2.22l-.95-3.08h-5.57l-.94,3.08h-2.1l4.59-14.42Zm3.46,9.41h0l-1.83-5.89c-.05-.24-.13-.58-.22-.95s-.11-.63-.14-.77h-.08c-.03.13-.05.39-.13.79-.08.38-.16.68-.22.93l-1.82,5.89h4.43Z"></path>
      <polygon class="cls-1" points="167.38 49.87 167.38 49.87 163.57 49.87 163.57 47.96 173.26 47.96 173.26 49.87 169.47 49.87 169.47 62.38 167.38 62.38 167.38 49.87"></polygon>
      <path class="cls-1" d="m176.02,60.77h0c-1-1.25-1.49-3.11-1.49-5.6s.49-4.34,1.49-5.6c1.01-1.25,2.45-1.88,4.27-1.88s3.26.63,4.27,1.88c1.01,1.26,1.49,3.14,1.49,5.6s-.49,4.35-1.49,5.6c-1.01,1.26-2.45,1.88-4.27,1.88s-3.26-.62-4.27-1.88Zm6.9-1.31h0c.62-.85.92-2.1.92-3.74v-1.06c0-1.64-.3-2.9-.92-3.77-.63-.85-1.49-1.29-2.64-1.29s-2.01.44-2.64,1.29c-.62.87-.92,2.13-.92,3.77v1.06c0,1.64.3,2.89.92,3.74.63.88,1.49,1.31,2.64,1.31s2.01-.43,2.64-1.31Z"></path>
      <path class="cls-1" d="m194.47,60.8h0c-.95-1.22-1.44-3.11-1.44-5.62s.49-4.37,1.44-5.6c.97-1.25,2.39-1.88,4.24-1.88,1.55,0,2.77.47,3.72,1.42.93.93,1.39,2.3,1.39,4.12h-2.14c0-1.21-.27-2.11-.82-2.7-.51-.63-1.25-.94-2.14-.94-2.31,0-3.48,1.7-3.48,5.06v1.06c0,3.36,1.17,5.05,3.54,5.05.89,0,1.63-.3,2.17-.93.55-.6.82-1.5.82-2.67h2.06c0,1.8-.46,3.17-1.39,4.09-.92.93-2.17,1.39-3.72,1.39-1.85,0-3.27-.59-4.24-1.85Z"></path>
      <path class="cls-1" d="m207.33,60.77h0c-1.01-1.25-1.52-3.11-1.52-5.6s.51-4.34,1.52-5.6c1-1.25,2.4-1.88,4.25-1.88s3.22.63,4.23,1.88c1,1.26,1.51,3.14,1.51,5.6s-.51,4.35-1.51,5.6c-1.01,1.26-2.41,1.88-4.23,1.88s-3.25-.62-4.25-1.88Zm6.85-1.31h0c.62-.85.95-2.1.95-3.74v-1.06c0-1.64-.33-2.9-.95-3.77-.59-.85-1.48-1.29-2.6-1.29s-2.01.44-2.63,1.29c-.62.87-.95,2.13-.95,3.77v1.06c0,1.64.32,2.89.95,3.74.62.88,1.49,1.31,2.63,1.31s2.01-.43,2.6-1.31Z"></path>
      <path class="cls-1" d="m220.91,60.77h0c-1.01-1.25-1.49-3.11-1.49-5.6s.49-4.34,1.49-5.6c1.01-1.25,2.42-1.88,4.27-1.88s3.23.63,4.26,1.88c1.01,1.26,1.49,3.14,1.49,5.6s-.49,4.35-1.49,5.6c-1.03,1.26-2.44,1.88-4.26,1.88s-3.26-.62-4.27-1.88Zm6.89-1.31h0c.63-.85.93-2.1.93-3.74v-1.06c0-1.64-.3-2.9-.93-3.77-.62-.85-1.49-1.29-2.63-1.29s-2.02.44-2.64,1.29c-.62.87-.93,2.13-.93,3.77v1.06c0,1.64.31,2.89.93,3.74.62.88,1.49,1.31,2.64,1.31s2.01-.43,2.63-1.31Z"></path>
      <path class="cls-1" d="m233.47,47.96h5.15c1.39,0,2.48.39,3.25,1.15.74.76,1.12,1.79,1.12,3.11s-.38,2.34-1.17,3.13c-.82.79-1.85,1.2-3.19,1.2h-3.05v5.83h-2.1v-14.42Zm5.01,6.68h0c.71,0,1.26-.22,1.67-.65.44-.44.63-1.04.63-1.77s-.19-1.31-.6-1.72c-.41-.43-.95-.63-1.69-.63h-2.92v4.77h2.92Z"></path>
      <polygon class="cls-1" points="245.16 47.96 245.16 47.96 254.18 47.96 254.18 49.87 247.29 49.87 247.29 54.05 253.25 54.05 253.25 55.95 247.29 55.95 247.29 60.47 254.32 60.47 254.32 62.38 245.16 62.38 245.16 47.96"></polygon>
      <path class="cls-1" d="m256.86,47.96h5.9c1.39,0,2.48.36,3.22,1.09.77.74,1.15,1.72,1.15,2.94,0,.87-.25,1.67-.68,2.32-.47.66-1.07,1.12-1.86,1.39l2.87,6.68h-2.35l-2.6-6.26h-3.52v6.26h-2.13v-14.42Zm5.74,6.27h0c.71,0,1.25-.22,1.66-.63.41-.41.6-.93.6-1.61,0-.65-.2-1.17-.58-1.55-.39-.38-.93-.58-1.66-.58h-3.64v4.37h3.61Z"></path>
      <path class="cls-1" d="m272.69,47.96h2.6l4.59,14.42h-2.22l-.95-3.08h-5.56l-.95,3.08h-2.09l4.59-14.42Zm3.42,9.41h0l-1.79-5.89c-.08-.24-.13-.58-.22-.95s-.14-.63-.14-.77h-.08c-.04.13-.09.39-.14.79-.08.38-.16.68-.22.93l-1.84,5.89h4.43Z"></path>
      <polygon class="cls-1" points="283.04 49.87 283.04 49.87 279.25 49.87 279.25 47.96 288.95 47.96 288.95 49.87 285.16 49.87 285.16 62.38 283.04 62.38 283.04 49.87"></polygon>
      <polygon class="cls-1" points="290.94 47.96 290.94 47.96 293.03 47.96 293.03 62.38 290.94 62.38 290.94 47.96"></polygon>
      <polygon class="cls-1" points="294.66 47.96 294.66 47.96 296.96 47.96 300.36 59.68 300.44 59.68 303.95 47.96 306 47.96 301.59 62.38 299.07 62.38 294.66 47.96"></polygon>
      <polygon class="cls-1" points="307.72 47.96 307.72 47.96 316.65 47.96 316.65 49.87 309.81 49.87 309.81 54.05 315.73 54.05 315.73 55.95 309.81 55.95 309.81 60.47 316.78 60.47 316.78 62.38 307.72 62.38 307.72 47.96"></polygon>
      <path class="cls-1" d="m142.06,83.02h0c-.94-1.24-1.43-3.11-1.43-5.59s.49-4.34,1.43-5.59c.98-1.22,2.39-1.84,4.23-1.84,1.55,0,2.77.47,3.72,1.39.92.93,1.41,2.3,1.41,4.1h-2.17c0-1.16-.27-2.06-.79-2.68-.54-.59-1.24-.93-2.17-.93-2.3,0-3.47,1.68-3.47,5.05v1.04c0,3.37,1.16,5.01,3.52,5.01.93,0,1.66-.3,2.17-.89.55-.62.82-1.49.82-2.69h2.09c0,1.82-.47,3.18-1.41,4.1-.92.92-2.17,1.38-3.72,1.38-1.84,0-3.25-.62-4.23-1.84Z"></path>
      <polygon class="cls-1" points="157.18 78.8 157.18 78.8 152.59 70.17 154.87 70.17 158.29 76.76 158.37 76.76 161.77 70.17 163.84 70.17 159.27 78.8 159.27 84.59 157.18 84.59 157.18 78.8"></polygon>
      <path class="cls-1" d="m165.47,70.17h5.65c.73,0,1.38.17,1.95.44.57.3,1.03.7,1.35,1.25.32.54.49,1.17.49,1.87,0,.79-.19,1.48-.62,2.07-.4.6-.92,1.01-1.57,1.22v.08c.73.22,1.35.66,1.81,1.31.49.66.73,1.41.73,2.31,0,.79-.19,1.47-.57,2.07-.38.57-.86,1.01-1.48,1.33-.62.3-1.33.46-2.09.46h-5.65v-14.42Zm5.08,6.09h0c.65,0,1.16-.22,1.57-.62.41-.41.6-.9.6-1.49,0-.68-.2-1.17-.55-1.53-.35-.35-.86-.54-1.51-.54h-3.09v4.19h2.98Zm.3,6.4h0c.65,0,1.19-.19,1.59-.58.41-.38.6-.93.6-1.63,0-.63-.19-1.17-.63-1.63-.43-.44-1-.68-1.7-.68h-3.14v4.52h3.28Z"></path>
      <polygon class="cls-1" points="177.52 70.17 177.52 70.17 186.48 70.17 186.48 72.08 179.61 72.08 179.61 76.27 185.56 76.27 185.56 78.15 179.61 78.15 179.61 82.67 186.59 82.67 186.59 84.59 177.52 84.59 177.52 70.17"></polygon>
      <path class="cls-1" d="m189.22,70.17h5.89c1.42,0,2.48.39,3.25,1.12.74.74,1.12,1.72,1.12,2.92,0,.89-.23,1.66-.66,2.31-.47.65-1.1,1.14-1.86,1.41l2.87,6.66h-2.35l-2.6-6.26h-3.56v6.26h-2.11v-14.42Zm5.74,6.26h0c.71,0,1.26-.2,1.67-.6.38-.4.6-.95.6-1.63s-.2-1.17-.58-1.56c-.39-.38-.94-.57-1.67-.57h-3.66v4.36h3.64Z"></path>
      <path class="cls-1" d="m206.9,70.17h4.52c1.76,0,3.11.6,4.09,1.8.97,1.17,1.46,2.91,1.46,5.19,0,2.42-.49,4.28-1.46,5.53s-2.33,1.9-4.09,1.9h-4.52v-14.42Zm4.33,12.49h0c1.11,0,1.97-.41,2.59-1.25.63-.85.95-2.07.95-3.73v-1.03c0-1.49-.32-2.64-.95-3.4-.62-.77-1.49-1.17-2.59-1.17h-2.22v10.58h2.22Z"></path>
      <polygon class="cls-1" points="219.5 70.17 219.5 70.17 228.46 70.17 228.46 72.08 221.59 72.08 221.59 76.27 227.54 76.27 227.54 78.15 221.59 78.15 221.59 82.67 228.57 82.67 228.57 84.59 219.5 84.59 219.5 70.17"></polygon>
      <polygon class="cls-1" points="231.2 70.17 231.2 70.17 239.54 70.17 239.54 72.08 233.29 72.08 233.29 76.41 238.78 76.41 238.78 78.34 233.29 78.34 233.29 84.59 231.2 84.59 231.2 70.17"></polygon>
      <polygon class="cls-1" points="241.98 70.17 241.98 70.17 250.92 70.17 250.92 72.08 244.08 72.08 244.08 76.27 249.99 76.27 249.99 78.15 244.08 78.15 244.08 82.67 251.06 82.67 251.06 84.59 241.98 84.59 241.98 70.17"></polygon>
      <path class="cls-1" d="m253.68,70.17h1.83l5.08,8.71c.11.19.28.49.44.89.19.41.3.71.35.85l.05-.03-.03-1.68v-8.74h1.88v14.42h-1.8l-5.12-8.78c-.13-.22-.27-.54-.46-.95-.19-.4-.3-.68-.35-.81l-.08.05c0,.11.03.35.05.68.03.32.03.68.03.98v8.84h-1.88v-14.42Z"></path>
      <path class="cls-1" d="m267.18,83.02h0c-.98-1.24-1.44-3.11-1.44-5.59s.46-4.34,1.44-5.59c.95-1.22,2.37-1.84,4.24-1.84,1.52,0,2.77.47,3.7,1.39.94.93,1.41,2.3,1.41,4.1h-2.15c0-1.16-.27-2.06-.81-2.68-.52-.59-1.25-.93-2.15-.93-2.34,0-3.48,1.68-3.48,5.05v1.04c0,3.37,1.17,5.01,3.51,5.01.93,0,1.66-.3,2.21-.89.54-.62.81-1.49.81-2.69h2.07c0,1.82-.47,3.18-1.39,4.1-.93.92-2.18,1.38-3.73,1.38-1.87,0-3.29-.62-4.24-1.84Z"></path>
      <polygon class="cls-1" points="278.98 70.17 278.98 70.17 287.94 70.17 287.94 72.08 281.07 72.08 281.07 76.27 287.01 76.27 287.01 78.15 281.07 78.15 281.07 82.67 288.04 82.67 288.04 84.59 278.98 84.59 278.98 70.17"></polygon>
      <path class="cls-1" d="m142.06,105.24h0c-.94-1.22-1.43-3.1-1.43-5.59s.49-4.35,1.43-5.57c.98-1.24,2.39-1.87,4.23-1.87,1.55,0,2.77.47,3.72,1.41.92.93,1.41,2.28,1.41,4.09h-2.17c0-1.19-.27-2.09-.79-2.68-.54-.62-1.24-.93-2.17-.93-2.3,0-3.47,1.68-3.47,5.02v1.06c0,3.34,1.16,5.02,3.52,5.02.93,0,1.66-.31,2.17-.93.55-.59.82-1.49.82-2.65h2.09c0,1.79-.47,3.14-1.41,4.07-.92.92-2.17,1.39-3.72,1.39-1.84,0-3.25-.6-4.23-1.85Z"></path>
      <polygon class="cls-1" points="153.86 92.48 153.86 92.48 162.79 92.48 162.79 94.39 155.97 94.39 155.97 98.56 161.87 98.56 161.87 100.47 155.97 100.47 155.97 104.99 162.93 104.99 162.93 106.89 153.86 106.89 153.86 92.48"></polygon>
      <path class="cls-1" d="m165.56,92.48h1.84l5.05,8.69c.14.19.27.51.47.93.16.4.3.68.35.81l.05-.03-.05-1.66v-8.75h1.9v14.41h-1.79l-5.1-8.8c-.13-.22-.27-.51-.46-.93-.2-.4-.31-.68-.36-.81l-.08.03c0,.14.03.35.05.7,0,.33.03.66.03.98v8.83h-1.9v-14.41Z"></path>
      <polygon class="cls-1" points="180.98 94.39 180.98 94.39 177.17 94.39 177.17 92.48 186.87 92.48 186.87 94.39 183.1 94.39 183.1 106.89 180.98 106.89 180.98 94.39"></polygon>
      <path class="cls-1" d="m188.95,92.48h5.84c1.39,0,2.48.35,3.21,1.09.76.74,1.14,1.72,1.14,2.94,0,.87-.25,1.66-.68,2.31-.46.66-1.06,1.12-1.85,1.4l2.85,6.67h-2.34l-2.58-6.26h-3.5v6.26h-2.1v-14.41Zm5.68,6.26h0c.71,0,1.25-.22,1.67-.63.4-.41.59-.93.59-1.6s-.19-1.17-.57-1.56c-.39-.38-.93-.57-1.67-.57h-3.61v4.36h3.58Z"></path>
      <polygon class="cls-1" points="201.55 92.48 201.55 92.48 210.51 92.48 210.51 94.39 203.64 94.39 203.64 98.56 209.58 98.56 209.58 100.47 203.64 100.47 203.64 104.99 210.62 104.99 210.62 106.89 201.55 106.89 201.55 92.48"></polygon>
      <path class="cls-1" d="m219.31,105.21h0c-1.02-1.25-1.53-3.1-1.53-5.56s.51-4.32,1.53-5.57c1.01-1.24,2.43-1.87,4.26-1.87s3.28.63,4.28,1.87c1.02,1.25,1.53,3.12,1.53,5.57s-.51,4.31-1.53,5.56c-1.01,1.24-2.43,1.87-4.28,1.87s-3.25-.63-4.26-1.87Zm6.9-1.3h0c.63-.85.95-2.09.95-3.72v-1.06c0-1.63-.32-2.87-.95-3.74-.63-.84-1.5-1.28-2.65-1.28s-2.02.44-2.62,1.28c-.63.87-.96,2.12-.96,3.74v1.06c0,1.63.33,2.87.96,3.72.59.86,1.5,1.3,2.62,1.3s2.02-.44,2.65-1.3Z"></path>
      <polygon class="cls-1" points="231.83 92.48 231.83 92.48 240.26 92.48 240.26 94.39 233.95 94.39 233.95 98.72 239.5 98.72 239.5 100.63 233.95 100.63 233.95 106.89 231.83 106.89 231.83 92.48"></polygon>
      <polygon class="cls-1" points="247.61 92.48 247.61 92.48 256.56 92.48 256.56 94.39 249.7 94.39 249.7 98.56 255.64 98.56 255.64 100.47 249.7 100.47 249.7 104.99 256.67 104.99 256.67 106.89 247.61 106.89 247.61 92.48"></polygon>
      <polygon class="cls-1" points="262.38 99.41 262.38 99.41 258.33 92.48 260.77 92.48 263.66 97.47 263.68 97.47 266.62 92.48 268.84 92.48 264.82 99.27 269.28 106.89 266.86 106.89 263.57 101.15 263.52 101.15 260.17 106.89 257.94 106.89 262.38 99.41"></polygon>
      <path class="cls-1" d="m271.9,105.24h0c-.98-1.22-1.44-3.1-1.44-5.59s.46-4.35,1.44-5.57c.94-1.24,2.36-1.87,4.24-1.87,1.52,0,2.77.47,3.69,1.41.95.93,1.41,2.28,1.41,4.09h-2.14c0-1.19-.27-2.09-.82-2.68-.51-.62-1.25-.93-2.14-.93-2.34,0-3.48,1.68-3.48,5.02v1.06c0,3.34,1.17,5.02,3.51,5.02.92,0,1.66-.31,2.2-.93.55-.59.82-1.49.82-2.65h2.06c0,1.79-.46,3.14-1.39,4.07-.92.92-2.17,1.39-3.72,1.39-1.88,0-3.29-.6-4.24-1.85Z"></path>
      <polygon class="cls-1" points="283.69 92.48 283.69 92.48 292.63 92.48 292.63 94.39 285.79 94.39 285.79 98.56 291.73 98.56 291.73 100.47 285.79 100.47 285.79 104.99 292.76 104.99 292.76 106.89 283.69 106.89 283.69 92.48"></polygon>
      <polygon class="cls-1" points="295.39 92.48 295.39 92.48 297.47 92.48 297.47 104.93 303.37 104.93 303.37 106.89 295.39 106.89 295.39 92.48"></polygon>
      <polygon class="cls-1" points="305.45 92.48 305.45 92.48 307.57 92.48 307.57 104.93 313.52 104.93 313.52 106.89 305.45 106.89 305.45 92.48"></polygon>
      <polygon class="cls-1" points="315.51 92.48 315.51 92.48 324.45 92.48 324.45 94.39 317.61 94.39 317.61 98.56 323.52 98.56 323.52 100.47 317.61 100.47 317.61 104.99 324.59 104.99 324.59 106.89 315.51 106.89 315.51 92.48"></polygon>
      <path class="cls-1" d="m327.21,92.48h1.85l5.06,8.69c.11.19.28.51.44.93.19.4.3.68.35.81l.05-.03-.03-1.66v-8.75h1.88v14.41h-1.8l-5.12-8.8c-.11-.22-.27-.51-.46-.93-.16-.4-.3-.68-.35-.81l-.08.03c.03.14.03.35.05.7.03.33.03.66.03.98v8.83h-1.88v-14.41Z"></path>
      <path class="cls-1" d="m340.71,105.24h0c-.95-1.22-1.44-3.1-1.44-5.59s.49-4.35,1.44-5.57c.98-1.24,2.39-1.87,4.24-1.87,1.55,0,2.77.47,3.73,1.41.92.93,1.39,2.28,1.39,4.09h-2.15c0-1.19-.27-2.09-.79-2.68-.54-.62-1.24-.93-2.17-.93-2.31,0-3.48,1.68-3.48,5.02v1.06c0,3.34,1.17,5.02,3.54,5.02.93,0,1.63-.31,2.18-.93.54-.59.81-1.49.81-2.65h2.07c0,1.79-.47,3.14-1.39,4.07-.93.92-2.18,1.39-3.73,1.39-1.85,0-3.26-.6-4.24-1.85Z"></path>
      <polygon class="cls-1" points="352.51 92.48 352.51 92.48 361.47 92.48 361.47 94.39 354.6 94.39 354.6 98.56 360.54 98.56 360.54 100.47 354.6 100.47 354.6 104.99 361.57 104.99 361.57 106.89 352.51 106.89 352.51 92.48"></polygon>
    </g>
  </g>
</svg>